<svg fill="none" height="24" viewBox="0 0 24 24" width="24" xmlns="http://www.w3.org/2000/svg"><g fill="#292d32"><path d="m16.8203 1.91016h-9.63999c-2.12 0-3.86 1.74-3.86 3.86v14.09004c0 1.8 1.29 2.56 2.87 1.69l4.87999-2.71c.52-.29 1.36-.29 1.87 0l4.88 2.71c1.58.88 2.87.12 2.87-1.69v-14.09004c-.01-2.12-1.74-3.86-3.87-3.86z" opacity=".4"/><path d="m11.0893 13.2499c-.19 0-.38-.07-.53-.22l-1.5-1.5c-.29-.29-.29-.77 0-1.06s.77-.29 1.06 0l.97.97 3.47-3.46996c.29-.29.77-.29 1.06 0s.29.77 0 1.06l-4 3.99996c-.15.15-.34.22-.53.22z"/></g></svg>