<svg width="26" height="28" viewBox="0 0 26 28" fill="none" xmlns="http://www.w3.org/2000/svg">
<path fill-rule="evenodd" clip-rule="evenodd" d="M6.86816 2.54314C8.49347 0.917823 10.6979 0.00473022 12.9964 0.00473022C15.295 0.00473022 17.4994 0.917823 19.1247 2.54314C20.75 4.16845 21.6631 6.37285 21.6631 8.6714C21.6631 12.6733 22.6708 15.3713 23.7629 17.1264L23.7712 17.1398C24.254 17.9156 24.6258 18.5132 24.874 18.9439C24.9983 19.1595 25.1013 19.3498 25.1736 19.509C25.2097 19.5884 25.2444 19.6737 25.2699 19.7594C25.2922 19.8344 25.3247 19.964 25.3124 20.1134C25.3 20.2654 25.2725 20.4632 25.1631 20.66C25.0538 20.8569 24.9004 20.9848 24.7779 21.0756C24.5863 21.2178 24.3497 21.2573 24.2266 21.2755C24.066 21.2993 23.8715 21.3127 23.6538 21.3212C23.2199 21.3381 22.6115 21.3381 21.8287 21.3381H4.1641C3.3813 21.3381 2.77298 21.3381 2.33908 21.3212C2.12136 21.3127 1.92679 21.2993 1.76623 21.2755C1.64314 21.2573 1.40657 21.2178 1.21494 21.0756C1.09247 20.9848 0.939066 20.8569 0.829709 20.66C0.720352 20.4632 0.692833 20.2654 0.680404 20.1134C0.668183 19.964 0.700628 19.8344 0.722957 19.7594C0.748477 19.6737 0.783179 19.5884 0.81927 19.509C0.891523 19.3498 0.994545 19.1595 1.11881 18.9439C1.36705 18.5131 1.73894 17.9155 2.22173 17.1396L2.22994 17.1264C3.32206 15.3713 4.32975 12.6733 4.32975 8.6714C4.32975 6.37285 5.24284 4.16845 6.86816 2.54314ZM12.9964 1.33806C11.0515 1.33806 9.18623 2.11068 7.81097 3.48595C6.4357 4.86121 5.66308 6.72648 5.66308 8.6714C5.66308 12.91 4.59203 15.8541 3.362 17.8308C2.8694 18.6225 2.50957 19.2009 2.27401 19.6096C2.18744 19.7599 2.12286 19.8783 2.07676 19.9699C2.15749 19.9773 2.2608 19.9838 2.39101 19.9888C2.79563 20.0046 3.37776 20.0047 4.18156 20.0047H21.8113C22.6151 20.0047 23.1972 20.0046 23.6018 19.9888C23.732 19.9838 23.8354 19.9773 23.9161 19.9699C23.87 19.8783 23.8054 19.7599 23.7188 19.6096C23.4833 19.2009 23.1234 18.6225 22.6308 17.8308C21.4008 15.8541 20.3298 12.91 20.3298 8.6714C20.3298 6.72648 19.5571 4.86121 18.1819 3.48595C16.8066 2.11068 14.9413 1.33806 12.9964 1.33806ZM23.992 20.14C23.9933 20.1444 23.9928 20.1435 23.9914 20.1381ZM2.00145 20.138C2.00007 20.1435 1.9995 20.1444 2.0008 20.14L2.00145 20.138ZM8.96883 25.5636C9.21247 25.2875 9.63376 25.2613 9.90981 25.5049C10.7329 26.2314 11.8124 26.6714 12.9964 26.6714C14.1804 26.6714 15.26 26.2314 16.083 25.5049C16.3591 25.2613 16.7804 25.2875 17.024 25.5636C17.2677 25.8396 17.2414 26.2609 16.9653 26.5046C15.908 27.4377 14.5176 28.0047 12.9964 28.0047C11.4752 28.0047 10.0848 27.4377 9.0275 26.5046C8.75145 26.2609 8.72518 25.8396 8.96883 25.5636Z" fill="#222631"/>
</svg>
