<svg width="21" height="18" viewBox="0 0 21 18" fill="none" xmlns="http://www.w3.org/2000/svg">
<path fill-rule="evenodd" clip-rule="evenodd" d="M5.27784 0.5H15.7222C16.5435 0.499997 17.1905 0.499994 17.7112 0.542533C18.2423 0.585932 18.6859 0.676087 19.089 0.881477C19.7476 1.21703 20.283 1.75247 20.6186 2.41103C20.824 2.81413 20.9141 3.25771 20.9575 3.78889C20.9578 3.79259 20.9581 3.79629 20.9584 3.8C21.0065 3.90991 21.0122 4.03126 20.9794 4.14211C21 4.59533 21 5.1328 21 5.77778V12.2222C21 13.0435 21 13.6905 20.9575 14.2111C20.9141 14.7423 20.824 15.1859 20.6186 15.589C20.283 16.2475 19.7476 16.783 19.089 17.1185C18.6859 17.3239 18.2423 17.4141 17.7112 17.4575C17.1905 17.5 16.5435 17.5 15.7223 17.5H5.27782C4.45656 17.5 3.80959 17.5 3.28893 17.4575C2.75776 17.4141 2.31418 17.3239 1.91108 17.1185C1.25251 16.783 0.717077 16.2475 0.38152 15.589C0.17613 15.1859 0.0859748 14.7423 0.042576 14.2111C3.66904e-05 13.6905 3.94339e-05 13.0435 4.27718e-05 12.2222V5.77779C4.01492e-05 5.13281 3.78843e-05 4.59533 0.0206422 4.14211C-0.0121373 4.03126 -0.0064167 3.90991 0.0416755 3.80001C0.0419735 3.7963 0.0422737 3.79259 0.042576 3.78889C0.0859748 3.25771 0.17613 2.81413 0.38152 2.41103C0.717077 1.75247 1.25251 1.21703 1.91108 0.881477C2.31418 0.676087 2.75776 0.585932 3.28893 0.542533C3.80959 0.499994 4.45656 0.499997 5.27784 0.5ZM1.00205 4.96174C1.00009 5.21245 1.00004 5.49006 1.00004 5.8V12.2C1.00004 13.0483 1.00043 13.6545 1.03925 14.1297C1.04347 14.1812 1.0481 14.2307 1.05318 14.2783L6.84196 9.04967L1.00205 4.96174ZM7.92069 8.58413L1.04793 3.77319C1.08823 3.35918 1.15954 3.08676 1.27253 2.86502C1.51221 2.39462 1.89466 2.01217 2.36507 1.77248C2.6037 1.65089 2.90103 1.57756 3.37036 1.53921C3.84554 1.50039 4.45171 1.5 5.30004 1.5H15.7C16.5484 1.5 17.1545 1.50039 17.6297 1.53921C18.0991 1.57756 18.3964 1.65089 18.635 1.77248C19.1054 2.01217 19.4879 2.39462 19.7276 2.86502C19.8405 3.08676 19.9119 3.35918 19.9522 3.77319L13.0794 8.58411C13.0736 8.58799 13.0679 8.592 13.0622 8.59615L12.0484 9.30583C11.3533 9.79237 11.1108 9.95234 10.8628 10.0142C10.6246 10.0735 10.3755 10.0735 10.1372 10.0142C9.88926 9.95234 9.64675 9.79237 8.95169 9.30583L7.93784 8.59613C7.93219 8.592 7.92648 8.588 7.92069 8.58413ZM7.68247 9.63802L1.38227 15.3286C1.62181 15.7104 1.96099 16.0216 2.36507 16.2275C2.6037 16.3491 2.90103 16.4224 3.37036 16.4608C3.84554 16.4996 4.45171 16.5 5.30004 16.5H15.7C16.5484 16.5 17.1545 16.4996 17.6297 16.4608C18.0991 16.4224 18.3964 16.3491 18.635 16.2275C19.0391 16.0216 19.3783 15.7104 19.6178 15.3286L13.3176 9.63802L12.6219 10.1251C12.595 10.1438 12.5686 10.1624 12.5425 10.1806C11.9587 10.5897 11.5558 10.872 11.1047 10.9845C10.7077 11.0834 10.2924 11.0834 9.89537 10.9845C9.44433 10.872 9.04142 10.5897 8.45758 10.1806C8.4315 10.1624 8.40505 10.1438 8.37823 10.1251L7.68247 9.63802ZM14.1581 9.04967L19.9469 14.2783C19.952 14.2307 19.9566 14.1812 19.9608 14.1297C19.9997 13.6545 20 13.0483 20 12.2V5.8C20 5.49006 20 5.21245 19.998 4.96174L14.1581 9.04967Z" fill="#222631"/>
</svg>
