<svg width="22" height="22" viewBox="0 0 22 22" fill="none" xmlns="http://www.w3.org/2000/svg">
<path fill-rule="evenodd" clip-rule="evenodd" d="M11.0742 1.5C8.03665 1.5 5.57422 3.96243 5.57422 7C5.57422 8.82688 6.57729 10.2037 7.87239 11.5526C8.18263 11.8757 8.50418 12.192 8.82955 12.512L8.86721 12.549C9.20343 12.8797 9.54338 13.2148 9.86661 13.5554C10.3044 14.0168 10.7229 14.4999 11.0742 15.0181C11.4255 14.4999 11.844 14.0168 12.2818 13.5554C12.6051 13.2148 12.945 12.8797 13.2812 12.549L13.3189 12.5119C13.6443 12.1919 13.9658 11.8757 14.276 11.5526C15.5712 10.2037 16.5742 8.82688 16.5742 7C16.5742 3.96243 14.1118 1.5 11.0742 1.5ZM4.57422 7C4.57422 3.41015 7.48437 0.5 11.0742 0.5C14.6641 0.5 17.5742 3.41015 17.5742 7C17.5742 9.23683 16.3273 10.86 14.9974 12.2452C14.6769 12.579 14.3461 12.9043 14.0234 13.2216L13.9824 13.2619C13.6448 13.594 13.3168 13.9175 13.0072 14.2437C12.386 14.8985 11.8634 15.5396 11.5214 16.2236C11.4367 16.393 11.2636 16.5 11.0742 16.5C10.8848 16.5 10.7117 16.393 10.627 16.2236C10.285 15.5396 9.76247 14.8985 9.14121 14.2437C8.83162 13.9175 8.5036 13.594 8.16599 13.2619L8.12497 13.2216C7.80229 12.9043 7.4715 12.5789 7.15104 12.2452C5.82115 10.86 4.57422 9.23683 4.57422 7ZM11.0742 6.5C10.7981 6.5 10.5742 6.72386 10.5742 7C10.5742 7.27614 10.7981 7.5 11.0742 7.5C11.3504 7.5 11.5742 7.27614 11.5742 7C11.5742 6.72386 11.3504 6.5 11.0742 6.5ZM9.57422 7C9.57422 6.17157 10.2458 5.5 11.0742 5.5C11.9026 5.5 12.5742 6.17157 12.5742 7C12.5742 7.82843 11.9026 8.5 11.0742 8.5C10.2458 8.5 9.57422 7.82843 9.57422 7ZM4.53168 13.0845C4.64314 13.3372 4.52868 13.6324 4.27603 13.7438C3.38895 14.1351 2.70112 14.5906 2.24186 15.0724C1.78504 15.5516 1.57422 16.0334 1.57422 16.5C1.57422 17.4233 2.42999 18.4258 4.20833 19.226C5.93974 20.0052 8.36675 20.5 11.0742 20.5C13.7817 20.5 16.2087 20.0052 17.9401 19.226C19.7184 18.4258 20.5742 17.4233 20.5742 16.5C20.5742 16.0334 20.3634 15.5516 19.9066 15.0724C19.4473 14.5906 18.7595 14.1351 17.8724 13.7438C17.6198 13.6324 17.5053 13.3372 17.6168 13.0845C17.7282 12.8319 18.0234 12.7174 18.276 12.8289C19.2403 13.2543 20.0525 13.7762 20.6304 14.3824C21.2107 14.9911 21.5742 15.7078 21.5742 16.5C21.5742 18.062 20.1914 19.3095 18.3505 20.1379C16.4626 20.9875 13.8896 21.5 11.0742 21.5C8.25884 21.5 5.68585 20.9875 3.79797 20.1379C1.95703 19.3095 0.574219 18.062 0.574219 16.5C0.574219 15.7078 0.937716 14.9911 1.51806 14.3824C2.09596 13.7762 2.90812 13.2543 3.87241 12.8289C4.12506 12.7174 4.42023 12.8319 4.53168 13.0845Z" fill="#383E46"/>
</svg>
