<svg width="21" height="20" viewBox="0 0 21 20" fill="none" xmlns="http://www.w3.org/2000/svg">
<path fill-rule="evenodd" clip-rule="evenodd" d="M8 1.5C6.067 1.5 4.5 3.067 4.5 5C4.5 6.933 6.067 8.5 8 8.5C9.933 8.5 11.5 6.933 11.5 5C11.5 3.067 9.933 1.5 8 1.5ZM3.5 5C3.5 2.51472 5.51472 0.5 8 0.5C10.4853 0.5 12.5 2.51472 12.5 5C12.5 7.48528 10.4853 9.5 8 9.5C5.51472 9.5 3.5 7.48528 3.5 5ZM13.5365 1.10315C13.6401 0.847184 13.9316 0.723677 14.1876 0.82729C15.8358 1.49448 17 3.11069 17 5C17 6.88931 15.8358 8.50552 14.1876 9.17271C13.9316 9.27632 13.6401 9.15282 13.5365 8.89685C13.4329 8.64088 13.5564 8.34939 13.8124 8.24577C15.096 7.72619 16 6.46807 16 5C16 3.53193 15.096 2.27381 13.8124 1.75423C13.5564 1.65061 13.4329 1.35912 13.5365 1.10315ZM6.48122 12.5H10.5C10.7761 12.5 11 12.7239 11 13C11 13.2761 10.7761 13.5 10.5 13.5H6.5C5.56128 13.5 4.88227 13.5003 4.34541 13.5369C3.81304 13.5732 3.45707 13.6436 3.16061 13.7664C2.30301 14.1216 1.62165 14.803 1.26642 15.6606C1.14362 15.9571 1.07322 16.313 1.0369 16.8454C1.00027 17.3823 1 18.0613 1 19C1 19.2761 0.776142 19.5 0.5 19.5C0.223858 19.5 2.5305e-08 19.2761 2.5305e-08 19V18.9812C-1.82244e-06 18.0652 -3.25218e-06 17.3522 0.03922 16.7773C0.0790172 16.1941 0.160859 15.7165 0.342542 15.2779C0.799265 14.1753 1.6753 13.2993 2.77792 12.8425C3.21655 12.6609 3.69406 12.579 4.27734 12.5392C4.85221 12.5 5.56522 12.5 6.48122 12.5ZM20.8536 13.6464C21.0488 13.8417 21.0488 14.1583 20.8536 14.3536L16.8536 18.3536C16.6583 18.5488 16.3417 18.5488 16.1464 18.3536L14.1464 16.3536C13.9512 16.1583 13.9512 15.8417 14.1464 15.6464C14.3417 15.4512 14.6583 15.4512 14.8536 15.6464L16.5 17.2929L20.1464 13.6464C20.3417 13.4512 20.6583 13.4512 20.8536 13.6464Z" fill="#222631"/>
</svg>
