<svg width="21" height="20" viewBox="0 0 21 20" fill="none" xmlns="http://www.w3.org/2000/svg">
<path fill-rule="evenodd" clip-rule="evenodd" d="M5.13069 1.21604C4.70502 1.00074 4.20232 1.00074 3.77665 1.21604C3.5806 1.3152 3.38122 1.5057 2.82199 2.06493L2.66435 2.22256C2.11943 2.76748 1.91152 2.9809 1.75004 3.26836C1.56788 3.59264 1.42859 4.12826 1.42969 4.50021C1.43069 4.83379 1.4895 5.05144 1.65224 5.62479C2.49052 8.57827 4.07206 11.3653 6.39821 13.6915C8.72437 16.0176 11.5114 17.5992 14.4649 18.4375C15.0383 18.6002 15.2559 18.659 15.5895 18.66C15.9614 18.6611 16.4971 18.5218 16.8214 18.3397C17.1088 18.1782 17.3222 17.9703 17.8671 17.4254L18.0248 17.2677C18.584 16.7085 18.7745 16.5091 18.8737 16.3131C19.089 15.8874 19.089 15.3847 18.8737 14.959C18.7745 14.763 18.584 14.5636 18.0248 14.0044L17.8299 13.8095C17.4623 13.4418 17.3315 13.3149 17.2107 13.2364C16.7136 12.9132 16.0726 12.9132 15.5755 13.2364C15.4547 13.3149 15.3239 13.4418 14.9563 13.8095C14.9499 13.8159 14.9436 13.8222 14.9373 13.8285C14.8415 13.9244 14.7566 14.0094 14.6555 14.0818L14.3644 13.6752L14.6555 14.0818C14.2933 14.3411 13.7902 14.4269 13.3625 14.3023C13.2434 14.2675 13.1464 14.2209 13.0388 14.1692C13.0326 14.1662 13.0263 14.1632 13.0201 14.1602C11.5203 13.4401 10.1151 12.4586 8.87309 11.2166C7.63106 9.9746 6.64962 8.56943 5.92954 7.06964C5.92653 7.06337 5.92353 7.05714 5.92055 7.05095C5.8688 6.94331 5.82218 6.84635 5.78746 6.72723L6.26748 6.5873L5.78746 6.72723C5.66278 6.29954 5.74858 5.79638 6.00794 5.43417L6.41447 5.72526L6.00794 5.43417C6.08032 5.33308 6.16534 5.24818 6.26125 5.15239C6.26753 5.14612 6.27385 5.1398 6.28022 5.13343C6.64788 4.76577 6.77477 4.63501 6.85328 4.51425L7.27247 4.78679L6.85328 4.51425C7.17653 4.01708 7.17653 3.37615 6.85329 2.87898C6.77477 2.75822 6.64788 2.62746 6.28022 2.2598L6.08535 2.06493C5.52612 1.5057 5.32674 1.3152 5.13069 1.21604ZM3.3253 0.323694C4.03475 -0.0351438 4.87259 -0.0351441 5.58204 0.323694C5.9401 0.504801 6.25922 0.824175 6.72633 1.29166C6.74805 1.31339 6.77009 1.33545 6.79246 1.35782L6.98733 1.55269C7.00206 1.56742 7.01657 1.58193 7.03088 1.59622C7.33853 1.90372 7.54827 2.11334 7.69166 2.33389C8.2304 3.1625 8.23041 4.23073 7.69166 5.05934C7.54827 5.27989 7.33853 5.48951 7.03088 5.797C7.01658 5.8113 7.00206 5.8258 6.98733 5.84053C6.86241 5.96546 6.83956 5.99044 6.82099 6.01636C6.74033 6.12901 6.70873 6.31436 6.7475 6.44738C6.75677 6.47918 6.76662 6.50269 6.83102 6.63682C7.50293 8.03627 8.41906 9.34839 9.58019 10.5095C10.7413 11.6706 12.0534 12.5868 13.4529 13.2587C13.587 13.3231 13.6105 13.3329 13.6423 13.3422C13.7753 13.381 13.9607 13.3494 14.0734 13.2687C14.0993 13.2502 14.1243 13.2273 14.2492 13.1024C14.2639 13.0876 14.2784 13.0731 14.2927 13.0588C14.6002 12.7512 14.8098 12.5414 15.0304 12.398C15.859 11.8593 16.9272 11.8593 17.7558 12.398C17.9764 12.5414 18.186 12.7512 18.4935 13.0588C18.5078 13.0731 18.5223 13.0876 18.537 13.1024L18.7319 13.2972C18.7543 13.3196 18.7763 13.3417 18.7981 13.3634C19.2655 13.8305 19.5849 14.1496 19.766 14.5077C20.1249 15.2171 20.1249 16.055 19.766 16.7644C19.5849 17.1225 19.2655 17.4416 18.798 17.9087C18.7763 17.9304 18.7543 17.9525 18.7319 17.9748L18.5743 18.1325C18.56 18.1467 18.5459 18.1609 18.5319 18.1748C18.0423 18.6646 17.7317 18.9753 17.3111 19.2115C16.8364 19.4782 16.131 19.6616 15.5865 19.66C15.1044 19.6586 14.7618 19.5613 14.2261 19.4092L14.1919 19.3995C11.0786 18.5158 8.14091 16.8484 5.69111 14.3986C3.2413 11.9488 1.57389 9.01114 0.690235 5.89784C0.686971 5.88634 0.683731 5.87493 0.680516 5.8636C0.5284 5.32787 0.431132 4.98531 0.429698 4.50318C0.428078 3.95869 0.611512 3.25332 0.878187 2.7786L1.31354 3.02316L0.878187 2.7786C1.11446 2.35799 1.42513 2.04742 1.91488 1.55781C1.92886 1.54384 1.94298 1.52973 1.95724 1.51546L2.11488 1.35782C2.13725 1.33545 2.15929 1.31339 2.18101 1.29166C2.64812 0.824175 2.96724 0.504801 3.3253 0.323694L3.55098 0.769868L3.3253 0.323694Z" fill="white"/>
</svg>
